# xmcd CD database file generated by Grip 2.92
# 
# Track frame offsets:
#       150
#       18533
#       36043
#       70425
#       83565
#       99508
#       115935
#       134218
#       167338
#       194870
# 
# Disc length: 2755 seconds
# 
# Revision: 3
# Processed by: cddbd v1.4b41PL1 Copyright (c) Steve Scherf et al.
# Submitted via: Grip 2.92
# 
DISCID=8b0ac10a
DTITLE=Eric Jerardi - Eric Jerardi
DYEAR=1900
DGENRE=
TTITLE0=My Blessing's My Curse
TTITLE1=Payin' Dues
TTITLE2=Glimpse Beyond Reality
TTITLE3=Goodbye Destiny
TTITLE4=So Many Things
TTITLE5=Happiness Is So Hard To Find
TTITLE6=The Grass Ain't  Greener On The Other Side
TTITLE7=My Secret Sin
TTITLE8=She
TTITLE9=Mean, Heartless Women
EXTD=
EXTT0=
EXTT1=
EXTT2=
EXTT3=
EXTT4=
EXTT5=
EXTT6=
EXTT7=
EXTT8=
EXTT9=
PLAYORDER=
